<?xml version="1.0" encoding="utf-8"?>
<!-- Generator: Adobe Illustrator 22.0.0, SVG Export Plug-In . SVG Version: 6.00 Build 0)  -->
<svg version="1.1" id="Business_Cards" xmlns="http://www.w3.org/2000/svg" xmlns:xlink="http://www.w3.org/1999/xlink" x="0px"
	 y="0px" viewBox="0 0 30.3 38.5" style="enable-background:new 0 0 30.3 38.5;" xml:space="preserve">
<style type="text/css">
	.st0{fill:url(#SVGID_1_);}
</style>
<linearGradient id="SVGID_1_" gradientUnits="userSpaceOnUse" x1="8.2527" y1="81.3442" x2="38.33" y2="81.3442" gradientTransform="matrix(1 0 0 1 -8.33 -62.042)">
	<stop  offset="0" style="stop-color:#0FB9E2"/>
	<stop  offset="1" style="stop-color:#00ABE8"/>
</linearGradient>
<path class="st0" d="M29.4,24l-3.5-2c-0.2-1.2-0.6-2.4-1-3.6l2-1.2c0.3-0.1,0.4-0.3,0.5-0.6s0-0.6-0.1-0.8l-3.1-5.5
	c-0.2-0.3-0.5-0.5-0.9-0.5c-0.2,0-0.4,0.1-0.6,0.2l-2,1.1c-0.8-1-1.7-1.9-2.9-2.6V4.5c0-0.4-0.2-0.7-0.5-0.9L13,1
	c-0.1,0-0.3-0.1-0.5-0.1c-0.2,0-0.3,0-0.5,0.1c-0.3,0.2-0.5,0.5-0.5,0.9V5c-0.4-0.1-0.9-0.1-1.3-0.1H9.9L7.4,0.6
	C7.1,0.1,6.5-0.1,6,0.2l0,0L2.9,2.1C2.4,2.4,2.2,3,2.5,3.5l0,0L5,7.8C4.7,8.3,4.4,8.9,4.2,9.4L1.7,7.8C1.2,7.5,0.6,7.7,0.3,8.2
	C0.3,8.3,0.3,8.5,0.3,8.7v5c0,0.4,0.2,0.7,0.5,0.9l3.5,2c0.2,1.2,0.6,2.4,1,3.6l-2,1.2c-0.5,0.2-0.7,0.9-0.4,1.4l0,0l3.1,5.5
	c0.1,0.3,0.3,0.4,0.6,0.5c0.1,0,0.2,0,0.3,0c0.2,0,0.3,0,0.5-0.1l2-1.2c0.8,1,1.7,1.9,2.6,2.7v4.1c0,0.4,0.2,0.7,0.5,0.9l4.5,2.6
	c0.1,0,0.3,0.1,0.5,0.1c0.2,0,0.3,0,0.5-0.1c0.3-0.2,0.5-0.5,0.5-0.9v-3.1c0.4,0.1,0.9,0.1,1.3,0.1H20l2.5,4.3
	c0.2,0.3,0.5,0.5,0.9,0.5c0.2,0,0.3,0,0.5-0.1l3.2-1.8c0.3-0.1,0.4-0.3,0.5-0.6c0.1-0.3,0-0.6-0.1-0.8l-2.5-4.3
	c0.3-0.5,0.6-1,0.8-1.6l2.8,1.6c0.5,0.2,1.1,0,1.4-0.5c0.1-0.1,0.1-0.3,0.1-0.4v-5.2C30,24.5,29.8,24.2,29.4,24z M10.4,6
	c0.1,0,0.3,0,0.4,0c-0.5-0.1-0.9-0.1-1.4,0C9.8,6,10.1,6,10.4,6z M17.7,26c-0.8-0.1-1.5-0.3-2.1-0.7c-3.2-2.1-5.3-5.7-5.5-9.4
	c0-1,0.2-3.1,2.1-3.1c0.8,0.1,1.5,0.3,2.1,0.7c3.2,2.1,5.3,5.6,5.5,9.4C19.8,23.9,19.6,26,17.7,26L17.7,26z M19.6,32.7
	c-0.2-0.1-0.3-0.1-0.4,0c0.5,0.1,0.9,0.1,1.4,0C20.2,32.7,19.9,32.7,19.6,32.7L19.6,32.7z"/>
</svg>
