<svg xmlns="http://www.w3.org/2000/svg" xmlns:xlink="http://www.w3.org/1999/xlink" viewBox="0 0 841.89 595.28"><defs><style>.cls-1{fill:none;}.cls-2{fill:#fff;}.cls-3{isolation:isolate;}.cls-4{clip-path:url(#clip-path);}.cls-24,.cls-5{opacity:0.7;mix-blend-mode:overlay;}.cls-5{fill:url(#Unnamed_Pattern_3);}.cls-6{clip-path:url(#clip-path-2);}.cls-7{fill:url(#linear-gradient);}.cls-8{fill:url(#linear-gradient-2);}.cls-9{clip-path:url(#clip-path-3);}.cls-10{fill:url(#linear-gradient-3);}.cls-11{fill:url(#linear-gradient-4);}.cls-12{fill:url(#linear-gradient-5);}.cls-13{fill:url(#linear-gradient-6);}.cls-14{fill:url(#linear-gradient-7);}.cls-15{fill:url(#linear-gradient-8);}.cls-16{fill:url(#linear-gradient-9);}.cls-17{fill:url(#linear-gradient-10);}.cls-18{fill:url(#linear-gradient-11);}.cls-19{fill:url(#linear-gradient-12);}.cls-20{fill:url(#linear-gradient-13);}.cls-21{fill:url(#linear-gradient-14);}.cls-22{fill:url(#radial-gradient);}.cls-23{clip-path:url(#clip-path-4);}.cls-24{fill:url(#Unnamed_Pattern_3-3);}</style><clipPath id="clip-path"><rect class="cls-1" x="-7.24" y="-696.47" width="855.3" height="642.72"/></clipPath><pattern id="Unnamed_Pattern_3" data-name="Unnamed Pattern 3" width="3.98" height="3.98" patternTransform="translate(6.34 27.5)" patternUnits="userSpaceOnUse" viewBox="0 0 3.98 3.98"><rect class="cls-1" width="3.98" height="3.98"/><circle class="cls-2" cx="1.99" cy="1.99" r="0.2"/></pattern><clipPath id="clip-path-2"><rect class="cls-1" x="-7.24" y="-705.47" width="855.3" height="620.23"/></clipPath><linearGradient id="linear-gradient" x1="509.49" y1="-71.3" x2="571.65" y2="-71.3" gradientUnits="userSpaceOnUse"><stop offset="0" stop-color="#075f9d"/><stop offset="1" stop-color="#0088cd"/></linearGradient><linearGradient id="linear-gradient-2" x1="447.05" y1="-71.3" x2="509.49" y2="-71.3" gradientUnits="userSpaceOnUse"><stop offset="0" stop-color="#075f9d"/><stop offset="1" stop-color="#25467b"/></linearGradient><clipPath id="clip-path-3"><rect class="cls-1" x="-9.16" y="-341.84" width="854.86" height="252.5"/></clipPath><linearGradient id="linear-gradient-3" x1="640.17" y1="-83.44" x2="662.81" y2="-83.44" xlink:href="#linear-gradient"/><linearGradient id="linear-gradient-4" x1="617.42" y1="-83.44" x2="640.17" y2="-83.44" xlink:href="#linear-gradient-2"/><linearGradient id="linear-gradient-5" x1="639.02" y1="-17.06" x2="641.2" y2="-162.38" gradientUnits="userSpaceOnUse"><stop offset="0" stop-color="#0096d9"/><stop offset="0.1" stop-color="#0096d9" stop-opacity="0.96"/><stop offset="0.25" stop-color="#0097da" stop-opacity="0.86"/><stop offset="0.43" stop-color="#0098db" stop-opacity="0.69"/><stop offset="0.64" stop-color="#009add" stop-opacity="0.46"/><stop offset="0.88" stop-color="#009ddf" stop-opacity="0.17"/><stop offset="1" stop-color="#009ee0" stop-opacity="0"/></linearGradient><linearGradient id="linear-gradient-6" x1="192.35" y1="-78.2" x2="215" y2="-78.2" xlink:href="#linear-gradient"/><linearGradient id="linear-gradient-7" x1="169.6" y1="-78.2" x2="192.35" y2="-78.2" xlink:href="#linear-gradient-2"/><linearGradient id="linear-gradient-8" x1="191.2" y1="-11.82" x2="193.39" y2="-157.15" xlink:href="#linear-gradient-5"/><linearGradient id="linear-gradient-9" x1="333.12" y1="-57.2" x2="373.6" y2="-57.2" xlink:href="#linear-gradient"/><linearGradient id="linear-gradient-10" x1="292.47" y1="-57.2" x2="333.12" y2="-57.2" xlink:href="#linear-gradient-2"/><linearGradient id="linear-gradient-11" x1="332.21" y1="43.75" x2="333.25" y2="-98.28" gradientUnits="userSpaceOnUse"><stop offset="0" stop-color="#0060ab"/><stop offset="0.17" stop-color="#0060ab" stop-opacity="0.78"/><stop offset="0.45" stop-color="#0060ab" stop-opacity="0.44"/><stop offset="0.7" stop-color="#0060ab" stop-opacity="0.2"/><stop offset="0.89" stop-color="#0060ab" stop-opacity="0.05"/><stop offset="1" stop-color="#0060ab" stop-opacity="0"/></linearGradient><linearGradient id="linear-gradient-12" x1="249.74" y1="-76.7" x2="282.91" y2="-76.7" xlink:href="#linear-gradient"/><linearGradient id="linear-gradient-13" x1="216.43" y1="-76.7" x2="249.74" y2="-76.7" xlink:href="#linear-gradient-2"/><linearGradient id="linear-gradient-14" x1="247.87" y1="33.35" x2="248.82" y2="-97.7" xlink:href="#linear-gradient-11"/><radialGradient id="radial-gradient" cx="555.93" cy="-967.54" r="629.1" gradientTransform="translate(1377.22 -1022.63) rotate(180) scale(1 1.12)" gradientUnits="userSpaceOnUse"><stop offset="0" stop-color="#0095d5"/><stop offset="1" stop-color="#2c2d5a"/></radialGradient><clipPath id="clip-path-4"><rect class="cls-1" x="-7.24" y="-12.47" width="855.3" height="642.72"/></clipPath><pattern id="Unnamed_Pattern_3-3" data-name="Unnamed Pattern 3" width="3.98" height="3.98" patternTransform="translate(6.34 31.31)" patternUnits="userSpaceOnUse" viewBox="0 0 3.98 3.98"><rect class="cls-1" width="3.98" height="3.98"/><circle class="cls-2" cx="1.99" cy="1.99" r="0.2"/></pattern></defs><g class="cls-3"><g id="Business_Cards" data-name="Business Cards"><g class="cls-4"><rect class="cls-5" x="-480.88" y="-773.39" width="1456.68" height="946.96"/></g><g class="cls-6"><g class="cls-3"><polygon class="cls-7" points="571.65 -173.86 571.65 -4.82 509.49 31.26 509.49 -137.78 571.65 -173.86"/><polygon class="cls-8" points="509.49 -137.78 509.49 31.26 447.05 -4.82 447.05 -173.86 509.49 -137.78"/></g><g class="cls-9"><g class="cls-3"><polygon class="cls-10" points="662.81 -190.16 662.81 10.14 640.16 23.29 640.16 -177.01 662.81 -190.16"/><polygon class="cls-11" points="640.16 -177.01 640.16 23.29 617.42 10.14 617.42 -190.16 640.16 -177.01"/></g><polygon class="cls-12" points="653.87 -195.35 660.89 -245.03 619.34 -245.03 626.37 -195.33 617.42 -190.16 617.42 10.14 640.16 23.29 662.81 10.14 662.81 -190.16 653.87 -195.35"/><g class="cls-3"><polygon class="cls-13" points="215 -184.93 215 15.37 192.35 28.52 192.35 -171.78 215 -184.93"/><polygon class="cls-14" points="192.35 -171.78 192.35 28.52 169.6 15.37 169.6 -184.93 192.35 -171.78"/></g><polygon class="cls-15" points="206.05 -190.12 213.08 -239.8 171.52 -239.8 178.55 -190.1 169.6 -184.93 169.6 15.37 192.35 28.52 215 15.37 215 -184.93 206.05 -190.12"/><g class="cls-3"><polygon class="cls-16" points="373.6 -175.76 373.6 37.87 333.12 61.37 333.12 -152.26 373.6 -175.76"/><polygon class="cls-17" points="333.12 -152.26 333.12 61.37 292.47 37.87 292.47 -175.76 333.12 -152.26"/></g><polygon class="cls-18" points="333.12 -152.26 292.47 -175.76 292.47 37.87 333.12 61.37 373.6 37.87 373.6 -175.76 333.12 -152.26"/><g class="cls-3"><polygon class="cls-19" points="282.91 -173.86 282.91 1.2 249.74 20.45 249.74 -154.6 282.91 -173.86"/><polygon class="cls-20" points="249.74 -154.6 249.74 20.45 216.43 1.2 216.43 -173.86 249.74 -154.6"/></g><polygon class="cls-21" points="248.71 -147.5 211.2 -169.18 211.2 27.92 248.71 49.59 286.05 27.92 286.05 -169.18 248.71 -147.5"/></g></g><rect class="cls-22" x="-7.24" y="-12.47" width="855.3" height="638.22"/><g class="cls-23"><rect class="cls-24" x="-480.88" y="-89.39" width="1456.68" height="946.96"/></g></g></g></svg>