<?xml version="1.0" encoding="utf-8"?>
<!-- Generator: Adobe Illustrator 22.0.0, SVG Export Plug-In . SVG Version: 6.00 Build 0)  -->
<svg version="1.1" id="Business_Cards" xmlns="http://www.w3.org/2000/svg" xmlns:xlink="http://www.w3.org/1999/xlink" x="0px"
	 y="0px" viewBox="0 0 24.7 40.5" style="enable-background:new 0 0 24.7 40.5;" xml:space="preserve">
<style type="text/css">
	.st0{fill:url(#SVGID_1_);}
</style>
<linearGradient id="SVGID_1_" gradientUnits="userSpaceOnUse" x1="2.0454" y1="80.3117" x2="26.4827" y2="80.3117" gradientTransform="matrix(1 0 0 1 -1.8733 -60.042)">
	<stop  offset="0" style="stop-color:#0FB9E2"/>
	<stop  offset="1" style="stop-color:#00ABE8"/>
</linearGradient>
<path class="st0" d="M23.3,13.1c-2.9-4.2-6.5-7.7-11-10.3C8.5,0.6,4.7-0.4,1.5,0.4C0.6,0.7,0,1.6,0.1,2.5v12.5
	c0,5.5,2.4,12.1,6.4,17.8l3.7,5.2c0.6,0.8,1.3,1.5,2.2,2c0.7,0.5,1.4,0.6,2.2,0.5l3.7-0.9c4.1-1,6.4-4.8,6.4-10.3V16.6
	C24.6,15.3,24.1,14.1,23.3,13.1z M9.5,30.3l-0.1-0.2l-0.9-1.5l-3-5.2l2.4-3.5l2.2,3.4l8.8-10.6l1.8,3.5L9.5,30.3z"/>
</svg>
