<?xml version="1.0" encoding="utf-8"?>
<!-- Generator: Adobe Illustrator 22.0.0, SVG Export Plug-In . SVG Version: 6.00 Build 0)  -->
<svg version="1.1" id="Business_Cards" xmlns="http://www.w3.org/2000/svg" xmlns:xlink="http://www.w3.org/1999/xlink" x="0px"
	 y="0px" viewBox="0 0 25.7 33.1" style="enable-background:new 0 0 25.7 33.1;" xml:space="preserve">
<style type="text/css">
	.st0{fill:url(#SVGID_1_);}
	.st1{fill:url(#SVGID_2_);}
	.st2{fill:url(#SVGID_3_);}
	.st3{fill:url(#SVGID_4_);}
</style>
<linearGradient id="SVGID_1_" gradientUnits="userSpaceOnUse" x1="20.201" y1="92.8409" x2="29.7" y2="92.8409" gradientTransform="matrix(1 0 0 1 -4.0956 -66.042)">
	<stop  offset="0" style="stop-color:#0FB9E2"/>
	<stop  offset="1" style="stop-color:#00ABE8"/>
</linearGradient>
<path class="st0" d="M20.8,21.3c-0.6-0.3-1.2-0.5-1.9-0.6c-1-0.1-2.1,0.5-2.5,1.5c-0.3,0.6-0.4,1.2-0.4,1.9c0,0.8,0.2,1.6,0.4,2.4
	c0.2,0.8,0.6,1.6,1,2.3c0.4,0.7,0.9,1.4,1.5,2c0.6,0.6,1.2,1.1,1.9,1.5c0.6,0.4,1.2,0.6,1.9,0.7c0.5,0.1,1,0,1.5-0.3
	c0.4-0.2,0.8-0.6,1-1.1c0.3-0.6,0.4-1.2,0.4-1.9c0-0.8-0.1-1.6-0.4-2.3c-0.2-0.8-0.6-1.6-1-2.3s-0.9-1.4-1.5-2
	C22.2,22.5,21.6,22,20.8,21.3z"/>
<linearGradient id="SVGID_2_" gradientUnits="userSpaceOnUse" x1="14.4562" y1="86.8944" x2="26.5966" y2="86.8944" gradientTransform="matrix(1 0 0 1 -4.0956 -66.042)">
	<stop  offset="0" style="stop-color:#0FB9E2"/>
	<stop  offset="1" style="stop-color:#00ABE8"/>
</linearGradient>
<path class="st1" d="M20.9,14.9c-1.2-0.8-2.6-1.2-4.1-1.4c-2.4-0.3-4.7,1-5.6,3.2c-0.6,1.3-0.9,2.7-0.9,4.2c0,1.8,0.3,3.5,0.8,5.2
	c0.3,0.8,0.8,1.5,1.5,2c0.2,0.1,0.4,0.2,0.6,0.2c0.9,0.1,1.2-0.8,0.9-1.9c-0.4-1.2-0.6-2.4-0.6-3.6c0-1,0.2-2,0.6-2.9
	c0.4-0.8,0.9-1.4,1.6-1.8c0.7-0.4,1.5-0.6,2.3-0.5c1.1,0.1,2,0.5,2.9,1s1.6,0.1,1.6-0.9C22.4,16.6,21.8,15.5,20.9,14.9z"/>
<linearGradient id="SVGID_3_" gradientUnits="userSpaceOnUse" x1="9.2731" y1="83.3608" x2="26.6165" y2="83.3608" gradientTransform="matrix(1 0 0 1 -4.0956 -66.042)">
	<stop  offset="0" style="stop-color:#0FB9E2"/>
	<stop  offset="1" style="stop-color:#00ABE8"/>
</linearGradient>
<path class="st2" d="M20.9,9c-1.9-1.2-4-1.9-6.1-2.2c-1.7-0.2-3.5,0.2-5,1C8.4,8.7,7.2,10,6.5,11.6c-0.9,2-1.3,4.1-1.3,6.3
	c0,2.7,0.4,5.3,1.2,7.8c0.3,0.8,0.8,1.5,1.5,2c0.2,0.1,0.4,0.2,0.6,0.2c0.9,0.1,1.3-0.8,0.9-1.9c-0.6-2-1-4.1-1-6.2
	c0-1.7,0.3-3.4,1-5c0.6-1.3,1.5-2.3,2.7-3c1.2-0.7,2.6-1,4-0.8c1.7,0.2,3.4,0.7,4.9,1.6c0.9,0.5,1.6,0.1,1.6-0.9
	C22.4,10.6,21.8,9.6,20.9,9z"/>
<linearGradient id="SVGID_4_" gradientUnits="userSpaceOnUse" x1="4.0785" y1="79.7643" x2="26.6201" y2="79.7643" gradientTransform="matrix(1 0 0 1 -4.0956 -66.042)">
	<stop  offset="0" style="stop-color:#0FB9E2"/>
	<stop  offset="1" style="stop-color:#00ABE8"/>
</linearGradient>
<path class="st3" d="M20.9,3.1c-2.5-1.5-5.3-2.5-8-2.9c-2.3-0.3-4.7,0.2-6.7,1.3c-2,1.2-3.6,3-4.5,5.1C0.6,9.1,0,12,0.1,14.9
	c0,3.5,0.6,7,1.6,10.2c0.3,0.8,0.8,1.5,1.5,2c0.2,0.1,0.4,0.2,0.6,0.2c0.9,0.1,1.3-0.8,0.9-1.9c-0.9-2.8-1.4-5.7-1.4-8.6
	c-0.1-2.4,0.4-4.9,1.4-7.1c0.8-1.8,2.1-3.3,3.8-4.3c1.7-0.9,3.7-1.3,5.6-1.1c2.4,0.3,4.8,1.1,6.9,2.4c0.9,0.5,1.6,0.1,1.6-0.9
	C22.4,4.7,21.8,3.7,20.9,3.1z"/>
</svg>
