<svg id="Business_Cards" data-name="Business Cards" xmlns="http://www.w3.org/2000/svg" xmlns:xlink="http://www.w3.org/1999/xlink" viewBox="0 0 161.34 70.18">
<defs>
<style>.cls-1{fill:url(#linear-gradient);}.cls-2{fill:url(#linear-gradient-2);}.cls-3{fill:url(#linear-gradient-3);}.cls-4{fill:url(#linear-gradient-4);}.cls-5{fill:url(#linear-gradient-5);}.cls-6{font-size:31.67px;font-family:HyperspaceRace-Bold, Hyperspace Race;font-weight:700;}.cls-10,.cls-6,.cls-9{fill:#fff;}.cls-7{letter-spacing:-0.01em;}.cls-8{letter-spacing:-0.02em;}.cls-10,.cls-9{font-size:9.22px;stroke:#fff;stroke-miterlimit:10;stroke-width:0.25px;font-family:Bobcat-Regular, Bobcat;}.cls-9{letter-spacing:0.08em;}.cls-10{letter-spacing:0.08em;}</style><linearGradient id="linear-gradient" x1="1.23" y1="8.98" x2="41.4" y2="8.98" gradientTransform="matrix(1, 0, 0, 1, -0.77, 1.17)" gradientUnits="userSpaceOnUse"><stop offset="0.08" stop-color="#005b9e"/><stop offset="0.1" stop-color="#045fa1"/><stop offset="0.53" stop-color="#4b9acd"/><stop offset="0.84" stop-color="#77bfe8"/><stop offset="1" stop-color="#88cdf3"/></linearGradient><linearGradient id="linear-gradient-2" x1="11.97" y1="38.18" x2="48.06" y2="38.18" gradientUnits="userSpaceOnUse"><stop offset="0" stop-color="#88cdf3"/><stop offset="0.16" stop-color="#77bfe8"/><stop offset="0.47" stop-color="#4b9acd"/><stop offset="0.9" stop-color="#045fa1"/><stop offset="0.92" stop-color="#005b9e"/></linearGradient><linearGradient id="linear-gradient-3" x1="25.4" y1="29.55" x2="34.34" y2="29.55" xlink:href="#linear-gradient-2"/><linearGradient id="linear-gradient-4" x1="25.4" y1="47.53" x2="34.34" y2="47.53" xlink:href="#linear-gradient-2"/><linearGradient id="linear-gradient-5" x1="5.14" y1="70.18" x2="5.14" y2="16.49" gradientTransform="matrix(1, 0, 0, 1, 0, 0)" xlink:href="#linear-gradient"/></defs><polygon class="cls-1" points="0.49 14.7 29.86 0 40.65 5.22 11 20.2 0.49 14.98 0.49 14.7"/><path class="cls-2" d="M48,34.19,42.5,31.31a1.11,1.11,0,0,1-.55-.83,1,1,0,0,1,.27-.69L48,20.94l0-12L42.58,6.18,12,21.58l0,21,17.52-8.16v-2L24.4,34.75,24.5,32l-1.22.56,0-5.27,13.84-6.49-.26,3.84-1.64.76,0,.64,1.35-.56,0,3.15-1.29.56,0,.63L30.49,32v3.07L12,43.69l0,16.89,17.48-8.14v-2L24.4,52.73,24.5,50l-1.22.56,0-5.27,13.84-6.49-.26,3.84-1.64.77,0,.64,1.35-.56,0,3.14-1.29.56,0,.63L30.49,50V53L12.06,61.65l0,8.52L42.14,55.06l5.92-8.85Z"/><polygon class="cls-3" points="25.4 33.24 34.34 29.19 34.23 25.85 33.09 26.4 33.13 28.04 25.47 31.54 25.4 33.24"/><polygon class="cls-4" points="25.4 51.23 34.34 47.17 34.23 43.84 33.09 44.38 33.13 46.02 25.47 49.52 25.4 51.23"/><path class="cls-5" d="M6.25,60a1.43,1.43,0,0,1-2.47-1.36A1.43,1.43,0,0,1,5.6,57.7a1.41,1.41,0,0,1,1,1.34l3.71,1.28,0-16.68-4-1.38A1.43,1.43,0,1,1,5.6,40a1.41,1.41,0,0,1,1,1.34l3.66,1.26-.05-21L0,16.49.2,64.74l10.09,5.44,0-8.84Z"/><text class="cls-6" transform="translate(57.65 35.85) rotate(-0.14)">bl<tspan class="cls-7" x="23.69" y="0">e</tspan><tspan class="cls-8" x="39.74" y="0">s</tspan><tspan class="cls-7" x="54.98" y="0">s</tspan><tspan x="70.62" y="0">ed</tspan></text><text class="cls-9" transform="translate(59.25 49.93)">SEGURIDAD ELECTRONICA</text><text class="cls-10" transform="matrix(-1, 0, 0, 1, 141.71, 46.99)">`</text></svg>