<?xml version="1.0" encoding="utf-8"?>
<!-- Generator: Adobe Illustrator 22.0.0, SVG Export Plug-In . SVG Version: 6.00 Build 0)  -->
<svg version="1.1" id="Business_Cards" xmlns="http://www.w3.org/2000/svg" xmlns:xlink="http://www.w3.org/1999/xlink" x="0px"
	 y="0px" viewBox="0 0 20.9 44.4" style="enable-background:new 0 0 20.9 44.4;" xml:space="preserve">
<style type="text/css">
	.st0{fill:url(#SVGID_1_);}
</style>
<linearGradient id="SVGID_1_" gradientUnits="userSpaceOnUse" x1="1.55" y1="78.2369" x2="14.05" y2="78.2369" gradientTransform="matrix(1 0 0 1 0 -56.042)">
	<stop  offset="0" style="stop-color:#0FB9E2"/>
	<stop  offset="1" style="stop-color:#00ABE8"/>
</linearGradient>
<path class="st0" d="M18.5,21.5v-5.3c0-5.5-3.7-12.1-8.1-14.9S2.3,0.7,2.3,6v5.2C0.9,11.3,0,12.5,0,14.5L0,28c0.1,3.2,1.7,6.1,4.3,8
	l12.3,7.7c2.4,1.5,4.3,0.4,4.3-2.5V27.6C20.8,25.4,20,23.3,18.5,21.5z M7,9.1C7,6.7,8.6,5.8,10.5,7c2.1,1.5,3.4,3.8,3.5,6.4V18
	l-7-4.4V9.1z M11.5,31.3l0.1,4.2c0,0.8-0.7,1-1.4,0.3c-0.4-0.5-0.7-1.1-0.7-1.7v-4.2c-2-1.9-3.5-5.3-3.1-7.9c0.3-1.9,1.6-2.7,3.3-2
	c2.7,1.1,5.1,5.1,5.1,8.3C14.7,30.7,13.3,31.9,11.5,31.3L11.5,31.3z"/>
</svg>
