<?xml version="1.0" encoding="utf-8"?>
<!-- Generator: Adobe Illustrator 22.0.0, SVG Export Plug-In . SVG Version: 6.00 Build 0)  -->
<svg version="1.1" id="Capa_1" xmlns="http://www.w3.org/2000/svg" xmlns:xlink="http://www.w3.org/1999/xlink" x="0px" y="0px"
	 viewBox="0 0 36.5 800" style="enable-background:new 0 0 36.5 800;" xml:space="preserve">
<style type="text/css">
	.st0{fill:url(#SVGID_1_);}
	.st1{fill:url(#SVGID_2_);}
	.st2{fill:url(#SVGID_3_);}
	.st3{fill:url(#SVGID_4_);}
	.st4{fill:#8FD2F5;}
	.st5{fill:url(#SVGID_5_);}
</style>
<linearGradient id="SVGID_1_" gradientUnits="userSpaceOnUse" x1="21.1204" y1="830.4492" x2="15.3865" y2="814.2365" gradientTransform="matrix(1 0 0 -1 0 832.833)">
	<stop  offset="0" style="stop-color:#8FD2F5"/>
	<stop  offset="1" style="stop-color:#0094D7"/>
</linearGradient>
<polygon class="st0" points="36.5,10.5 18.3,20.9 0,10.5 18.3,0 "/>
<linearGradient id="SVGID_2_" gradientUnits="userSpaceOnUse" x1="18.3" y1="427.583" x2="36.5" y2="427.583" gradientTransform="matrix(1 0 0 -1 0 832.833)">
	<stop  offset="0" style="stop-color:#075F9D"/>
	<stop  offset="1" style="stop-color:#0088CD"/>
</linearGradient>
<polygon class="st1" points="36.5,10.5 36.5,789.6 18.3,800 18.3,20.9 "/>
<linearGradient id="SVGID_3_" gradientUnits="userSpaceOnUse" x1="1.960784e-02" y1="427.583" x2="18.3196" y2="427.583" gradientTransform="matrix(1 0 0 -1 0 832.833)">
	<stop  offset="0" style="stop-color:#075F9D"/>
	<stop  offset="1" style="stop-color:#25467B"/>
</linearGradient>
<polygon class="st2" points="18.3,20.9 18.3,800 0,789.6 0,10.5 "/>
<linearGradient id="SVGID_4_" gradientUnits="userSpaceOnUse" x1="17.0426" y1="430.0771" x2="-3.5977" y2="430.5119" gradientTransform="matrix(1 0 0 -1 0 832.833)">
	<stop  offset="0" style="stop-color:#075F9D"/>
	<stop  offset="1" style="stop-color:#0088CD"/>
</linearGradient>
<polygon class="st3" points="11.3,27.6 6.2,24.6 6.2,777.4 11.3,780.6 "/>
<g>
	<polygon class="st4" points="28.7,10.5 18.3,16.5 7.8,10.5 18.3,4.5 	"/>
</g>
<linearGradient id="SVGID_5_" gradientUnits="userSpaceOnUse" x1="13.0735" y1="55.3372" x2="7.9166" y2="55.4383" gradientTransform="matrix(1 0 0 -1 0 832.833)">
	<stop  offset="0" style="stop-color:#075F9D"/>
	<stop  offset="1" style="stop-color:#0088CD"/>
</linearGradient>
<polygon class="st5" points="6.2,777.5 11.3,780.5 11.3,774.5 "/>
</svg>
