<?xml version="1.0" encoding="utf-8"?>
<!-- Generator: Adobe Illustrator 22.0.0, SVG Export Plug-In . SVG Version: 6.00 Build 0)  -->
<svg version="1.1" id="Business_Cards" xmlns="http://www.w3.org/2000/svg" xmlns:xlink="http://www.w3.org/1999/xlink" x="0px"
	 y="0px" viewBox="0 0 48.1 70.2" style="enable-background:new 0 0 48.1 70.2;" xml:space="preserve">
<style type="text/css">
	.st0{fill:url(#SVGID_1_);}
	.st1{fill:url(#SVGID_2_);}
	.st2{fill:url(#SVGID_3_);}
	.st3{fill:url(#SVGID_4_);}
	.st4{fill:url(#SVGID_5_);}
</style>
<linearGradient id="SVGID_1_" gradientUnits="userSpaceOnUse" x1="1.26" y1="63.07" x2="41.42" y2="63.07" gradientTransform="matrix(1 0 0 -1 -0.77 73.17)">
	<stop  offset="8.000000e-02" style="stop-color:#005B9E"/>
	<stop  offset="0.1" style="stop-color:#045FA1"/>
	<stop  offset="0.53" style="stop-color:#4B9ACD"/>
	<stop  offset="0.84" style="stop-color:#77BFE8"/>
	<stop  offset="1" style="stop-color:#88CDF3"/>
</linearGradient>
<polygon class="st0" points="0.5,14.7 29.9,0 40.7,5.2 11,20.2 0.5,15 "/>
<linearGradient id="SVGID_2_" gradientUnits="userSpaceOnUse" x1="12" y1="33.825" x2="48.06" y2="33.825" gradientTransform="matrix(1 0 0 -1 0 72)">
	<stop  offset="0" style="stop-color:#88CDF3"/>
	<stop  offset="0.16" style="stop-color:#77BFE8"/>
	<stop  offset="0.47" style="stop-color:#4B9ACD"/>
	<stop  offset="0.9" style="stop-color:#045FA1"/>
	<stop  offset="0.92" style="stop-color:#005B9E"/>
</linearGradient>
<path class="st1" d="M48,34.2l-5.5-2.9c-0.3-0.2-0.5-0.5-0.5-0.8c0-0.3,0.1-0.5,0.3-0.7l5.8-8.8v-12l-5.4-2.8L12,21.6v21l17.5-8.2
	v-2l-5.1,2.3l0.1-2.8l-1.2,0.6v-5.3l13.8-6.5l-0.3,3.8l-1.6,0.8V26l1.3-0.6v3.1l-1.3,0.6v0.6L30.5,32v3.1L12,43.7v16.9l17.5-8.1v-2
	l-5.1,2.3l0.1-2.7l-1.2,0.6v-5.3l13.8-6.5l-0.3,3.8l-1.6,0.8v0.6l1.3-0.6v3.1l-1.3,0.6v0.6L30.5,50v3l-18.4,8.7v8.5l30.1-15.1
	l5.9-8.9L48,34.2z"/>
<linearGradient id="SVGID_3_" gradientUnits="userSpaceOnUse" x1="25.4" y1="42.455" x2="34.34" y2="42.455" gradientTransform="matrix(1 0 0 -1 0 72)">
	<stop  offset="0" style="stop-color:#88CDF3"/>
	<stop  offset="0.16" style="stop-color:#77BFE8"/>
	<stop  offset="0.47" style="stop-color:#4B9ACD"/>
	<stop  offset="0.9" style="stop-color:#045FA1"/>
	<stop  offset="0.92" style="stop-color:#005B9E"/>
</linearGradient>
<polygon class="st2" points="25.4,33.2 34.3,29.2 34.2,25.9 33.1,26.4 33.1,28 25.5,31.5 "/>
<linearGradient id="SVGID_4_" gradientUnits="userSpaceOnUse" x1="25.4" y1="24.465" x2="34.34" y2="24.465" gradientTransform="matrix(1 0 0 -1 0 72)">
	<stop  offset="0" style="stop-color:#88CDF3"/>
	<stop  offset="0.16" style="stop-color:#77BFE8"/>
	<stop  offset="0.47" style="stop-color:#4B9ACD"/>
	<stop  offset="0.9" style="stop-color:#045FA1"/>
	<stop  offset="0.92" style="stop-color:#005B9E"/>
</linearGradient>
<polygon class="st3" points="25.4,51.2 34.3,47.2 34.2,43.8 33.1,44.4 33.1,46 25.5,49.5 "/>
<linearGradient id="SVGID_5_" gradientUnits="userSpaceOnUse" x1="5.155" y1="1.82" x2="5.155" y2="55.51" gradientTransform="matrix(1 0 0 -1 0 72)">
	<stop  offset="8.000000e-02" style="stop-color:#005B9E"/>
	<stop  offset="0.1" style="stop-color:#045FA1"/>
	<stop  offset="0.53" style="stop-color:#4B9ACD"/>
	<stop  offset="0.84" style="stop-color:#77BFE8"/>
	<stop  offset="1" style="stop-color:#88CDF3"/>
</linearGradient>
<path class="st4" d="M6.3,60c-0.5,0.6-1.4,0.7-2,0.2c-0.5-0.4-0.7-1-0.5-1.6c0.2-0.8,1-1.2,1.8-1c0,0,0,0,0,0c0.6,0.2,1,0.7,1,1.3
	l3.7,1.3V43.6l-4-1.4c-0.5,0.6-1.4,0.7-2,0.2c-0.6-0.5-0.7-1.4-0.2-2C4.4,40,5,39.8,5.6,40c0.6,0.2,1,0.7,1,1.3l3.7,1.3l-0.1-21
	L0,16.5l0.2,48.3l10.1,5.4v-8.8L6.3,60z"/>
</svg>
