<svg id="icons" enable-background="new 0 0 64 64" style="fill: #57a7d5" viewBox="0 0 64 64" xmlns="http://www.w3.org/2000/svg">
                            <g>
                                <g>
                                    <g>
                                        <path d="m58 18c-.553 0-1-.448-1-1v-12c0-1.654-1.346-3-3-3h-44c-1.654 0-3 1.346-3 3v12c0 .552-.448 1-1 1s-1-.448-1-1v-12c0-2.757 2.243-5 5-5h44c2.757 0 5 2.243 5 5v12c0 .552-.447 1-1 1z"/>
                                    </g>

                                    <g>
                                        <path d="m54 53h-44c-2.757 0-5-2.243-5-5 0-.553.448-1 1-1s1 .447 1 1c0 1.654 1.346 3 3 3h44c1.654 0 3-1.346 3-3 0-.553.447-1 1-1s1 .447 1 1c0 2.757-2.243 5-5 5z"/>
                                    </g>
                                    
                                    <g>
                                        <path d="m54 64h-44c-2.757 0-5-2.243-5-5v-42c0-.552.448-1 1-1s1 .448 1 1v42c0 1.654 1.346 3 3 3h44c1.654 0 3-1.346 3-3v-42c0-.552.447-1 1-1s1 .448 1 1v42c0 2.757-2.243 5-5 5z"/>
                                    </g>
                                    
                                    <g>
                                        <path d="m53 48h-42c-.552 0-1-.447-1-1v-19.99c0-.552.448-1 1-1h42c.553 0 1 .448 1 1v19.99c0 .553-.447 1-1 1zm-41-2h40v-17.99h-40z"/>
                                    </g>
                                    
                                    <g>
                                        <path d="m32 44.01c-3.86 0-7-3.141-7-7s3.14-7 7-7c3.859 0 7 3.141 7 7s-3.141 7-7 7zm0-12c-2.757 0-5 2.243-5 5 0 2.758 2.243 5 5 5s5-2.242 5-5c0-2.757-2.243-5-5-5z"/>
                                    </g>
                                    
                                    <g>
                                        <path d="m32 41.01c-2.206 0-4-1.794-4-4 0-2.205 1.794-4 4-4s4 1.795 4 4c0 2.206-1.794 4-4 4zm0-6c-1.103 0-2 .897-2 2 0 1.104.897 2 2 2 1.104 0 2-.896 2-2 0-1.103-.896-2-2-2z"/>
                                    </g>
                                    
                                    <g>
                                        <path d="m49 38.01h-6c-.553 0-1-.447-1-1s.447-1 1-1h6c.553 0 1 .447 1 1s-.447 1-1 1z"/>
                                    </g>
                                    
                                    <g>
                                        <path d="m45 40.01c-.256 0-.512-.098-.707-.293l-2-2c-.391-.391-.391-1.023 0-1.414s1.023-.391 1.414 0l2 2c.391.391.391 1.023 0 1.414-.195.195-.451.293-.707.293z"/>
                                    </g>
                                    
                                    <g>
                                        <path d="m43 38.01c-.256 0-.512-.098-.707-.293-.391-.391-.391-1.023 0-1.414l2-2c.391-.391 1.023-.391 1.414 0s.391 1.023 0 1.414l-2 2c-.195.195-.451.293-.707.293z"/>
                                    </g>
                                    
                                    <g>
                                        <path d="m21 38.01h-6c-.552 0-1-.447-1-1s.448-1 1-1h6c.552 0 1 .447 1 1s-.448 1-1 1z"/>
                                    </g>
                                    
                                    <g>
                                        <path d="m19 40.01c-.256 0-.512-.098-.707-.293-.391-.391-.391-1.023 0-1.414l2-2c.391-.391 1.023-.391 1.414 0s.391 1.023 0 1.414l-2 2c-.195.195-.451.293-.707.293z"/>
                                    </g>
                                    
                                    <g>
                                        <path d="m21 38.01c-.256 0-.512-.098-.707-.293l-2-2c-.391-.391-.391-1.023 0-1.414s1.023-.391 1.414 0l2 2c.391.391.391 1.023 0 1.414-.195.195-.451.293-.707.293z"/>
                                    </g>
                                    
                                    <g>
                                        <path d="m20 14h-9c-.552 0-1-.448-1-1s.448-1 1-1h9c.552 0 1 .448 1 1s-.448 1-1 1z"/>
                                    </g>
                                    
                                    <g>
                                        <path d="m20 17h-9c-.552 0-1-.448-1-1s.448-1 1-1h9c.552 0 1 .448 1 1s-.448 1-1 1z"/>
                                    </g>
                                    
                                    <g>
                                        <path d="m17 20h-3c-.552 0-1-.448-1-1s.448-1 1-1h3c.552 0 1 .448 1 1s-.448 1-1 1z"/>
                                    </g>
                                    
                                    <g>
                                        <path d="m53 14h-9c-.553 0-1-.448-1-1s.447-1 1-1h9c.553 0 1 .448 1 1s-.447 1-1 1z"/>
                                    </g>
                                    
                                    <g>
                                        <path d="m53 17h-9c-.553 0-1-.448-1-1s.447-1 1-1h9c.553 0 1 .448 1 1s-.447 1-1 1z"/>
                                    </g>
                                    
                                    <g>
                                        <path d="m50 20h-3c-.553 0-1-.448-1-1s.447-1 1-1h3c.553 0 1 .448 1 1s-.447 1-1 1z"/>
                                    </g>
                                    
                                    <g>
                                        <path d="m25 16c-.552 0-1-.448-1-1v-4c0-.552.448-1 1-1s1 .448 1 1v4c0 .552-.448 1-1 1z"/>
                                    </g>
                                    
                                    <g>
                                        <path d="m32 23c-4.411 0-8-3.589-8-8 0-.552.448-1 1-1s1 .448 1 1c0 3.309 2.691 6 6 6s6-2.691 6-6c0-.552.447-1 1-1s1 .448 1 1c0 4.411-3.589 8-8 8z"/>
                                    </g>
                                    
                                    <g>
                                        <path d="m32 20c-2.757 0-5-2.243-5-5 0-.552.448-1 1-1s1 .448 1 1c0 1.654 1.346 3 3 3s3-1.346 3-3c0-.552.447-1 1-1s1 .448 1 1c0 2.757-2.243 5-5 5z"/>
                                    </g>

                                    <g>
                                        <path d="m39 16c-.553 0-1-.448-1-1 0-4.411-3.589-8-8-8-.552 0-1-.448-1-1s.448-1 1-1c5.514 0 10 4.486 10 10 0 .552-.447 1-1 1z"/>
                                    </g>

                                    <g>
                                        <path d="m36 16c-.553 0-1-.448-1-1 0-1.654-1.346-3-3-3-.552 0-1-.448-1-1s.448-1 1-1c2.757 0 5 2.243 5 5 0 .552-.447 1-1 1z"/>
                                    </g>
                                    
                                    <g>
                                        <path d="m25 12c-.552 0-1-.448-1-1s.448-1 1-1c2.206 0 4-1.794 4-4 0-.552.448-1 1-1s1 .448 1 1c0 3.309-2.691 6-6 6z"/>
                                    </g>
                                    
                                    <g>
                                        <path d="m28 16c-.552 0-1-.448-1-1s.448-1 1-1c1.654 0 3-1.346 3-3 0-.552.448-1 1-1 .553 0 1 .448 1 1 0 2.757-2.243 5-5 5z"/>
                                    </g>
                                </g>
                            </g>
                        </svg>