<svg id="Capa_1" enable-background="new 0 0 512 512" style="fill: #57a7d5" viewBox="0 0 512 512" xmlns="http://www.w3.org/2000/svg">
                            <g>
                            <path d="m509.07 53.93c-1.86-1.86-4.44-2.93-7.07-2.93h-201c-5.51 0-10 4.49-10 10s4.49 10 10 10h191v310h-472v-310h191c5.51 0 10-4.49 10-10s-4.49-10-10-10h-201c-2.63 0-5.21 1.07-7.07 2.93s-2.93 4.44-2.93 7.07v330c0 2.63 1.07 5.21 2.93 7.07s4.44 2.93 7.07 2.93h85.857l-42.929 42.929c-2.86 2.86-3.715 7.161-2.167 10.898s5.195 6.173 9.239 6.173h60c2.652 0 5.196-1.054 7.071-2.929l57.072-57.071h143.715l57.071 57.071c1.875 1.875 4.419 2.929 7.071 2.929h60c4.044 0 7.691-2.437 9.239-6.173s.692-8.038-2.167-10.898l-42.929-42.929h85.857c2.63 0 5.21-1.07 7.07-2.93s2.93-4.44 2.93-7.07v-330c0-2.63-1.07-5.21-2.93-7.07zm-393.212 387.07h-31.716l40-40h31.716zm312 0h-31.716l-40-40h31.716z"/>
                        
                            <circle cx="256" cy="61" r="10"/>
                        
                            <path d="m355.001 197.5c2.519 0 5.041-.946 6.985-2.845 3.952-3.858 4.027-10.189.169-14.141-28.342-29.028-66.041-45.014-106.155-45.014s-77.813 15.986-106.155 45.014c-3.858 3.952-3.782 10.283.169 14.141 3.952 3.858 10.283 3.782 14.141-.169 24.546-25.14 57.164-38.986 91.845-38.986s67.299 13.846 91.845 38.986c1.959 2.007 4.556 3.014 7.156 3.014z"/>
                        
                            <path d="m327 226.5c2.526 0 5.054-.951 7-2.859 3.944-3.866 4.007-10.198.141-14.142-20.861-21.28-48.612-33-78.141-33s-57.28 11.719-78.141 33c-3.866 3.944-3.803 10.275.141 14.142s10.276 3.804 14.142-.141c17.068-17.412 39.748-27 63.859-27s46.791 9.589 63.859 27c1.957 1.998 4.548 3 7.14 3z"/>
                        
                            <path d="m298.5 254.5c2.522 0 5.046-.948 6.992-2.851 3.948-3.862 4.019-10.193.157-14.142-13.249-13.546-30.881-21.007-49.649-21.007s-36.4 7.461-49.649 21.008c-3.861 3.949-3.791 10.28.157 14.142 3.949 3.86 10.279 3.792 14.142-.157 9.455-9.668 22.009-14.992 35.351-14.992s25.896 5.324 35.351 14.992c1.958 2.002 4.552 3.007 7.148 3.007z"/>
                        
                            <path d="m234.787 265.287c-11.697 11.697-11.697 30.729 0 42.427 5.849 5.848 13.531 8.772 21.213 8.772s15.365-2.924 21.213-8.772c11.697-11.697 11.697-30.729 0-42.427-11.697-11.697-30.729-11.697-42.426 0zm31.213 21.213c0 2.671-1.04 5.182-2.929 7.071s-4.4 2.929-7.071 2.929-5.182-1.04-7.071-2.929-2.929-4.4-2.929-7.071 1.04-5.182 2.929-7.071 4.4-2.929 7.071-2.929 5.182 1.04 7.071 2.929 2.929 4.4 2.929 7.071z"/>
                            </g>
                        </svg>